<?xml version="1.0" encoding="UTF-8"?>
<svg id="Layer_2" data-name="Layer 2" xmlns="http://www.w3.org/2000/svg" viewBox="0 0 104.99 102.45">
  <defs>
    <style>
      .cls-1 {
        fill: #1cc8e0;
      }
    </style>
  </defs>
  <g id="Layer_1-2" data-name="Layer 1">
    <g>
      <path class="cls-1" d="M17.08,28.79c-5.43-.32-12.02-.84-16.43,2.79,0,0-1.46,1.24,0,2.1,24.75,15.04,46.29,9.03,41.18,46.5-.68,4.96-5.07,16.42-3.56,19.91,1.36,3.14,4.34,2.86,6.76.83,6.07-5.07,19.1-43.89,18.63-52.14-.79-13.86-35.73-19.35-46.58-19.99Z"/>
      <path class="cls-1" d="M102.11,17.91C93.92,7.01,45.83-1.52,32.69.23c-13.38,1.78-9.9,7.41-.32,11.84,32.69,15.14,51.86,11.55,44.36,57.51-.66,4.02-10.23,30.48,2.1,25.97,6.15-2.25,16.78-30.79,19.11-37.68,3.49-10.3,11.25-30.57,4.18-39.96Z"/>
    </g>
  </g>
</svg>