<?xml version="1.0" encoding="UTF-8"?>
<svg id="Layer_2" data-name="Layer 2" xmlns="http://www.w3.org/2000/svg" viewBox="0 0 477.2 81.67">
  <defs>
    <style>
      .cls-1 {
        fill: #1cc8e0;
      }
    </style>
  </defs>
  <g id="Layer_1-2" data-name="Layer 1">
    <g>
      <path class="cls-1" d="M13.61,22.95c-4.33-.26-9.58-.67-13.1,2.22,0,0-1.16.99,0,1.68,19.73,11.99,36.9,7.2,32.82,37.07-.54,3.95-4.04,13.09-2.83,15.87,1.08,2.5,3.46,2.28,5.39.66,4.84-4.04,15.22-34.99,14.85-41.57-.63-11.05-28.48-15.42-37.13-15.93Z"/>
      <path class="cls-1" d="M81.4,14.28C74.87,5.59,36.53-1.21,26.06.18c-10.66,1.42-7.89,5.91-.26,9.44,26.06,12.07,41.34,9.2,35.36,45.84-.52,3.2-8.16,24.3,1.67,20.7,4.91-1.79,13.37-24.54,15.23-30.04,2.78-8.21,8.97-24.37,3.33-31.86Z"/>
    </g>
    <g>
      <path class="cls-1" d="M122.73,21.58c.52.58.91,1.22,1.16,1.91.25.69.37,1.5.37,2.41,0,2.18-.81,3.98-2.42,5.4-1.61,1.42-3.62,2.12-6.01,2.12-1.1,0-2.21-.17-3.31-.51-1.1-.34-2.06-.76-2.86-1.25l-.75,1.27h-1.39l-.24-8.47h1.41c.29,1.05.63,1.99,1.02,2.83s.9,1.63,1.54,2.36c.6.68,1.31,1.23,2.12,1.64.81.41,1.74.61,2.81.61.8,0,1.5-.11,2.1-.31s1.08-.51,1.45-.89c.37-.38.65-.83.83-1.35s.27-1.11.27-1.79c0-.99-.28-1.91-.84-2.76-.56-.86-1.39-1.5-2.49-1.95-.75-.3-1.62-.63-2.6-1-.98-.36-1.82-.71-2.53-1.03-1.39-.63-2.48-1.45-3.25-2.46s-1.16-2.34-1.16-3.98c0-.94.19-1.82.57-2.63s.93-1.54,1.64-2.18c.67-.6,1.47-1.08,2.39-1.42.92-.34,1.88-.51,2.87-.51,1.14,0,2.16.17,3.06.52s1.72.75,2.46,1.22l.71-1.18h1.39l.14,8.2h-1.41c-.26-.94-.54-1.84-.86-2.7s-.73-1.64-1.25-2.33c-.5-.67-1.11-1.21-1.83-1.61-.72-.4-1.6-.6-2.65-.6-1.1,0-2.04.35-2.82,1.06-.78.71-1.17,1.57-1.17,2.59s.25,1.95.75,2.66c.5.7,1.22,1.28,2.18,1.73.85.41,1.68.76,2.5,1.05.82.3,1.61.61,2.38.95.7.3,1.37.64,2.01,1.03.64.38,1.2.83,1.68,1.34Z"/>
      <path class="cls-1" d="M147.33,11.13c1.09,1.14,1.94,2.51,2.56,4.12.62,1.61.92,3.39.92,5.34s-.31,3.75-.94,5.35c-.63,1.6-1.5,2.97-2.61,4.09-1.08,1.12-2.33,1.97-3.76,2.58s-2.95.91-4.56.91c-1.72,0-3.31-.32-4.76-.97-1.46-.64-2.71-1.54-3.75-2.69-1.05-1.13-1.87-2.49-2.46-4.1-.6-1.61-.9-3.33-.9-5.16,0-2.01.31-3.8.94-5.37.63-1.57,1.49-2.94,2.6-4.08,1.09-1.14,2.36-2.01,3.81-2.61,1.45-.6,2.96-.91,4.54-.91s3.18.31,4.63.92c1.45.62,2.71,1.48,3.76,2.6ZM144.73,28.65c.65-1.06,1.12-2.25,1.42-3.59.3-1.33.44-2.83.44-4.48s-.17-3.25-.5-4.67c-.33-1.42-.82-2.62-1.45-3.62-.64-.99-1.44-1.76-2.4-2.31s-2.07-.83-3.31-.83c-1.39,0-2.58.32-3.55.96s-1.77,1.49-2.39,2.56c-.58,1.02-1.01,2.22-1.3,3.59s-.43,2.81-.43,4.32c0,1.67.15,3.18.45,4.53.3,1.35.78,2.54,1.43,3.59.63,1.02,1.42,1.82,2.37,2.39.95.58,2.09.86,3.41.86,1.24,0,2.36-.29,3.36-.87,1-.58,1.81-1.39,2.44-2.44Z"/>
      <path class="cls-1" d="M173.09,14.38h-1.31c-.24-.92-.75-1.9-1.52-2.94s-1.51-1.62-2.22-1.72c-.36-.05-.79-.08-1.28-.1-.49-.02-1.05-.03-1.68-.03h-4.15v9.93h2.85c.86,0,1.53-.09,2.01-.27.48-.18.88-.46,1.22-.83.23-.26.45-.65.64-1.19.19-.54.32-1.12.38-1.73h1.31v9.72h-1.31c-.03-.51-.15-1.09-.36-1.74s-.42-1.12-.65-1.41c-.35-.43-.79-.72-1.32-.88-.53-.16-1.17-.24-1.91-.24h-2.85v8.5c0,.38.08.73.23,1.03.15.3.42.54.8.73.17.08.55.18,1.13.3.58.12,1.02.18,1.32.19v1.24h-10.71v-1.24c.35-.02.81-.06,1.39-.11.58-.05.96-.12,1.13-.2.35-.15.6-.38.76-.67s.24-.65.24-1.07V11.79c0-.38-.06-.72-.19-1.02-.13-.3-.4-.54-.8-.72-.31-.15-.73-.28-1.26-.4s-.95-.19-1.26-.21v-1.24h19.39v6.18Z"/>
      <path class="cls-1" d="M196.81,14.91h-1.2c-.1-.42-.29-.91-.57-1.49-.27-.57-.58-1.12-.92-1.63-.35-.53-.73-1-1.14-1.4s-.81-.63-1.2-.69c-.36-.05-.81-.08-1.36-.1-.55-.02-1.05-.03-1.52-.03h-1.01v19.77c0,.38.08.73.24,1.05s.45.57.85.74c.21.08.65.19,1.31.33.67.14,1.19.21,1.56.23v1.24h-11.67v-1.24c.33-.02.82-.07,1.49-.14s1.13-.16,1.38-.26c.38-.15.66-.37.84-.65.18-.29.27-.67.27-1.14V9.56h-1.01c-.36,0-.81,0-1.34.03-.53.02-1.05.05-1.53.11-.38.05-.78.28-1.19.69-.41.41-.79.88-1.14,1.4-.35.52-.66,1.08-.92,1.66-.27.59-.45,1.07-.56,1.45h-1.22v-6.71h21.55v6.71Z"/>
      <path class="cls-1" d="M233.82,9.44c-.29.01-.63.08-1.01.2-.38.12-.74.28-1.06.48-.41.25-.73.55-.98.88-.25.33-.47.79-.65,1.38-.82,2.68-1.78,5.82-2.87,9.4s-2.27,7.4-3.54,11.45h-1.6l-6.24-19.04-6.49,19.04h-1.54c-1.15-4.06-2.34-8.28-3.57-12.65-1.23-4.37-2.06-7.3-2.47-8.79-.1-.36-.26-.68-.46-.96-.2-.28-.48-.53-.83-.77-.29-.2-.63-.35-1.02-.44s-.74-.16-1.05-.18v-1.24h10.08v1.24c-.88.05-1.63.13-2.26.26-.62.13-.93.34-.93.64,0,.12.02.27.05.46s.06.35.09.46c.27,1.02.74,2.71,1.42,5.07.68,2.36,1.69,5.89,3.02,10.59l6.17-18.38h1.7l6.22,18.77c.84-2.88,1.56-5.41,2.17-7.56.61-2.16,1.11-4,1.5-5.54.28-1.08.45-1.82.52-2.22.07-.4.1-.74.1-1.02,0-.39-.27-.72-.81-.99s-1.41-.45-2.62-.54v-1.24h8.96v1.24Z"/>
      <path class="cls-1" d="M258.05,32.92h-10.27v-1.24c.91-.06,1.66-.17,2.25-.35.6-.17.9-.39.9-.64,0-.1-.01-.23-.04-.38-.02-.15-.06-.29-.1-.4l-2.05-5.54h-8.68c-.33.81-.59,1.52-.79,2.12-.2.6-.39,1.16-.55,1.67-.15.5-.26.91-.31,1.22s-.09.57-.09.77c0,.46.37.82,1.1,1.08.73.26,1.56.41,2.47.45v1.24h-9.31v-1.24c.3-.02.68-.09,1.13-.2.45-.11.82-.26,1.11-.44.46-.31.82-.64,1.08-.98.26-.34.5-.82.75-1.42,1.24-3.1,2.61-6.58,4.11-10.45,1.5-3.87,2.83-7.31,4.01-10.33h1.39l8.24,21.32c.17.45.37.82.59,1.1s.53.55.92.82c.27.16.62.3,1.04.41.43.11.79.17,1.08.18v1.24ZM248.11,22.81l-3.74-9.59-3.69,9.59h7.43Z"/>
      <path class="cls-1" d="M283.01,32.92h-6.66c-1.47-2.31-2.8-4.31-3.99-5.99-1.19-1.68-2.48-3.42-3.87-5.21h-2.53v7.84c0,.41.06.76.19,1.07s.4.54.82.71c.21.08.58.16,1.1.23.52.07.96.11,1.32.12v1.24h-10.45v-1.24c.28-.02.68-.06,1.21-.12.53-.06.9-.13,1.11-.23.35-.15.6-.37.76-.66.16-.29.24-.66.24-1.11V11.68c0-.41-.06-.77-.17-1.08s-.39-.55-.82-.71c-.29-.1-.67-.2-1.13-.29-.46-.09-.86-.14-1.18-.17v-1.24h11.41c1.04,0,2.03.11,2.94.32.92.21,1.75.56,2.49,1.04.72.46,1.29,1.07,1.72,1.82s.64,1.65.64,2.71c0,.95-.15,1.79-.44,2.53-.29.73-.72,1.37-1.29,1.9-.52.5-1.15.93-1.88,1.3-.73.37-1.54.68-2.42.93,1.22,1.61,2.23,2.97,3.04,4.08.81,1.1,1.8,2.44,2.97,4.02.51.7.97,1.21,1.38,1.54s.82.6,1.23.81c.3.15.68.27,1.13.35s.83.13,1.13.14v1.24ZM273.85,14.5c0-1.5-.43-2.68-1.29-3.56-.86-.88-2.07-1.31-3.64-1.31h-2.96v10.59h2.28c1.6,0,2.94-.51,4.01-1.54,1.07-1.03,1.6-2.42,1.6-4.18Z"/>
      <path class="cls-1" d="M304.75,25.64l-.47,7.28h-20.52v-1.24c.35-.02.81-.07,1.39-.15.58-.08.96-.15,1.13-.24.37-.17.63-.4.78-.68.14-.28.22-.63.22-1.06V11.79c0-.38-.06-.72-.19-1.02-.13-.3-.4-.54-.8-.72-.31-.15-.73-.28-1.26-.4s-.95-.19-1.26-.21v-1.24h19.12v5.96h-1.31c-.23-.88-.73-1.82-1.51-2.81-.77-.99-1.51-1.54-2.2-1.63-.36-.05-.79-.08-1.29-.1-.5-.02-1.07-.03-1.71-.03h-3.88v9.82h2.79c.89,0,1.55-.08,1.96-.25.41-.17.78-.45,1.09-.85.25-.34.47-.79.65-1.35.18-.56.3-1.09.36-1.59h1.31v9.68h-1.31c-.05-.56-.17-1.15-.37-1.77s-.42-1.07-.64-1.35c-.36-.45-.77-.75-1.23-.89-.46-.14-1.07-.21-1.82-.21h-2.79v7.41c0,.74.05,1.33.16,1.76s.31.75.61.97c.3.22.71.36,1.24.43.52.06,1.27.09,2.23.09h1.52c.63,0,1.16-.02,1.58-.07.44-.05.9-.13,1.37-.25.47-.12.8-.29,1-.5.53-.56,1.09-1.4,1.68-2.53.59-1.13.96-1.96,1.12-2.5h1.25Z"/>
      <path class="cls-1" d="M339.79,23.06c-.28.03-.65.09-1.12.17-.47.08-.85.18-1.14.32-.35.17-.59.42-.74.74s-.22.69-.22,1.12v1.92c0,1.39,0,2.33.03,2.82s.04.89.06,1.2c-1.54.7-3.08,1.23-4.62,1.6-1.53.37-3.04.56-4.51.56-1.58,0-3.1-.3-4.56-.89-1.46-.59-2.74-1.43-3.83-2.53-1.1-1.1-1.98-2.45-2.63-4.03s-.98-3.35-.98-5.3.31-3.63.93-5.24,1.5-3.01,2.64-4.19c1.1-1.16,2.42-2.07,3.95-2.71,1.53-.64,3.16-.97,4.9-.97,1.39,0,2.61.17,3.64.5s1.95.74,2.73,1.22l.71-1.18h1.39l.16,8.64h-1.43c-.25-.95-.55-1.89-.91-2.81-.36-.92-.83-1.75-1.4-2.48-.57-.73-1.26-1.32-2.08-1.75-.82-.44-1.8-.65-2.94-.65-1.24,0-2.35.25-3.33.76-.98.51-1.83,1.26-2.55,2.26-.71.96-1.25,2.17-1.64,3.61-.38,1.44-.58,3.05-.58,4.83,0,1.57.19,3.05.57,4.44s.93,2.59,1.65,3.6c.72,1.03,1.62,1.85,2.7,2.44s2.31.89,3.68.89c1.02,0,1.96-.16,2.8-.47.84-.31,1.44-.64,1.79-.99.09-.6.14-1.21.15-1.83s0-1.14,0-1.57v-1.36c0-.49-.07-.92-.2-1.3-.13-.38-.41-.65-.83-.83-.38-.17-.9-.31-1.56-.39s-1.17-.14-1.54-.17v-1.27h10.83v1.27Z"/>
      <path class="cls-1" d="M365.81,32.92h-6.66c-1.47-2.31-2.8-4.31-3.99-5.99-1.19-1.68-2.48-3.42-3.87-5.21h-2.53v7.84c0,.41.06.76.19,1.07s.4.54.82.71c.21.08.58.16,1.1.23.52.07.96.11,1.32.12v1.24h-10.45v-1.24c.28-.02.68-.06,1.21-.12.53-.06.9-.13,1.11-.23.35-.15.6-.37.76-.66.16-.29.24-.66.24-1.11V11.68c0-.41-.06-.77-.17-1.08s-.39-.55-.82-.71c-.29-.1-.67-.2-1.13-.29-.46-.09-.86-.14-1.18-.17v-1.24h11.41c1.04,0,2.03.11,2.94.32.92.21,1.75.56,2.49,1.04.72.46,1.29,1.07,1.72,1.82s.64,1.65.64,2.71c0,.95-.15,1.79-.44,2.53-.29.73-.72,1.37-1.29,1.9-.52.5-1.15.93-1.88,1.3-.73.37-1.54.68-2.42.93,1.22,1.61,2.23,2.97,3.04,4.08.81,1.1,1.8,2.44,2.97,4.02.51.7.97,1.21,1.38,1.54s.82.6,1.23.81c.3.15.68.27,1.13.35s.83.13,1.13.14v1.24ZM356.65,14.5c0-1.5-.43-2.68-1.29-3.56-.86-.88-2.07-1.31-3.64-1.31h-2.96v10.59h2.28c1.6,0,2.94-.51,4.01-1.54,1.07-1.03,1.6-2.42,1.6-4.18Z"/>
      <path class="cls-1" d="M386.73,11.13c1.09,1.14,1.95,2.51,2.56,4.12s.92,3.39.92,5.34-.31,3.75-.94,5.35-1.5,2.97-2.61,4.09c-1.08,1.12-2.33,1.97-3.76,2.58-1.43.6-2.95.91-4.56.91-1.72,0-3.31-.32-4.76-.97-1.46-.64-2.71-1.54-3.75-2.69-1.04-1.13-1.87-2.49-2.46-4.1-.6-1.61-.9-3.33-.9-5.16,0-2.01.31-3.8.94-5.37.63-1.57,1.49-2.94,2.6-4.08,1.09-1.14,2.36-2.01,3.81-2.61,1.45-.6,2.96-.91,4.54-.91s3.18.31,4.63.92c1.45.62,2.71,1.48,3.76,2.6ZM384.14,28.65c.65-1.06,1.12-2.25,1.42-3.59s.44-2.83.44-4.48-.17-3.25-.5-4.67-.82-2.62-1.46-3.62c-.64-.99-1.44-1.76-2.4-2.31s-2.07-.83-3.31-.83c-1.39,0-2.58.32-3.55.96-.98.64-1.77,1.49-2.39,2.56-.58,1.02-1.01,2.22-1.3,3.59s-.43,2.81-.43,4.32c0,1.67.15,3.18.45,4.53.3,1.35.78,2.54,1.43,3.59.63,1.02,1.42,1.82,2.37,2.39.95.58,2.09.86,3.41.86,1.24,0,2.36-.29,3.36-.87,1-.58,1.81-1.39,2.44-2.44Z"/>
      <path class="cls-1" d="M426.94,9.44c-.29.01-.63.08-1.01.2-.38.12-.74.28-1.06.48-.41.25-.73.55-.98.88-.25.33-.47.79-.65,1.38-.83,2.68-1.78,5.82-2.87,9.4-1.09,3.58-2.27,7.4-3.54,11.45h-1.6l-6.24-19.04-6.49,19.04h-1.54c-1.15-4.06-2.34-8.28-3.57-12.65-1.23-4.37-2.06-7.3-2.47-8.79-.1-.36-.26-.68-.46-.96-.2-.28-.48-.53-.83-.77-.29-.2-.63-.35-1.02-.44-.39-.1-.74-.16-1.05-.18v-1.24h10.07v1.24c-.88.05-1.63.13-2.25.26-.62.13-.93.34-.93.64,0,.12.02.27.05.46.03.19.06.35.09.46.27,1.02.74,2.71,1.42,5.07.68,2.36,1.68,5.89,3.02,10.59l6.17-18.38h1.7l6.22,18.77c.84-2.88,1.56-5.41,2.17-7.56.61-2.16,1.11-4,1.5-5.54.28-1.08.45-1.82.52-2.22.07-.4.1-.74.1-1.02,0-.39-.27-.72-.81-.99s-1.41-.45-2.62-.54v-1.24h8.96v1.24Z"/>
      <path class="cls-1" d="M449.65,14.91h-1.2c-.1-.42-.29-.91-.57-1.49-.27-.57-.58-1.12-.92-1.63-.35-.53-.73-1-1.14-1.4s-.81-.63-1.2-.69c-.36-.05-.81-.08-1.36-.1-.55-.02-1.05-.03-1.52-.03h-1.01v19.77c0,.38.08.73.24,1.05.16.32.45.57.85.74.21.08.65.19,1.32.33.67.14,1.19.21,1.56.23v1.24h-11.67v-1.24c.33-.02.82-.07,1.49-.14s1.13-.16,1.38-.26c.38-.15.67-.37.84-.65.18-.29.27-.67.27-1.14V9.56h-1.01c-.36,0-.81,0-1.34.03-.53.02-1.04.05-1.53.11-.38.05-.78.28-1.19.69s-.79.88-1.14,1.4-.66,1.08-.92,1.66c-.27.59-.45,1.07-.56,1.45h-1.22v-6.71h21.55v6.71Z"/>
      <path class="cls-1" d="M477.2,32.92h-10.26v-1.24c.28-.02.68-.06,1.21-.1.53-.05.89-.12,1.09-.21.35-.14.6-.35.77-.64.16-.29.24-.65.24-1.11v-8.8h-11.62v8.6c0,.41.07.75.2,1.03s.4.52.79.73c.2.1.55.21,1.05.31.5.1.9.16,1.19.17v1.24h-10.26v-1.24c.28-.02.68-.06,1.21-.1.53-.05.89-.12,1.09-.21.35-.14.6-.35.77-.64.16-.29.24-.65.24-1.11V11.79c0-.37-.08-.71-.23-1.02-.15-.31-.41-.55-.78-.72-.31-.15-.69-.28-1.14-.4s-.83-.19-1.16-.21v-1.24h10.26v1.24c-.33.01-.72.06-1.19.16-.47.09-.82.18-1.05.26-.4.14-.66.37-.79.7-.13.33-.2.68-.2,1.06v7.66h11.62v-7.49c0-.37-.08-.71-.23-1.02-.15-.31-.41-.55-.78-.72-.31-.15-.69-.28-1.14-.4-.45-.12-.83-.19-1.16-.21v-1.24h10.26v1.24c-.33.01-.72.06-1.19.16-.47.09-.82.18-1.05.26-.39.14-.66.37-.79.7-.13.33-.2.68-.2,1.06v17.82c0,.41.07.75.2,1.03.13.28.4.52.79.73.2.1.55.21,1.05.31.51.1.9.16,1.19.17v1.24Z"/>
      <path class="cls-1" d="M126.27,57.1c0,1.29-.25,2.43-.76,3.42-.5.99-1.2,1.81-2.1,2.46-.88.65-1.85,1.13-2.91,1.43-1.06.3-2.18.45-3.36.45h-2.77v7.49c0,.41.07.76.2,1.07.13.31.41.54.83.71.21.08.58.16,1.11.23.53.07,1.01.11,1.45.12v1.24h-10.61v-1.24c.28-.02.68-.06,1.21-.12.53-.06.9-.13,1.11-.23.35-.15.6-.37.76-.66.16-.29.24-.66.24-1.11v-17.84c0-.41-.06-.77-.17-1.1-.12-.33-.39-.57-.82-.73-.44-.15-.88-.26-1.31-.32-.44-.06-.81-.11-1.12-.13v-1.24h11.29c2.3,0,4.17.55,5.6,1.66,1.43,1.11,2.15,2.59,2.15,4.43ZM120.97,61.32c.39-.56.66-1.14.78-1.73.13-.6.19-1.13.19-1.61,0-.66-.08-1.33-.23-2.02-.16-.68-.43-1.28-.81-1.79-.41-.55-.94-.97-1.6-1.27s-1.49-.45-2.47-.45h-2.46v10.92h1.78c1.25,0,2.27-.19,3.06-.58s1.37-.87,1.77-1.45Z"/>
      <path class="cls-1" d="M152.15,75.72h-10.27v-1.24c.91-.06,1.66-.17,2.26-.35.6-.17.9-.39.9-.64,0-.1-.01-.23-.03-.38-.02-.15-.06-.29-.1-.4l-2.05-5.54h-8.68c-.33.81-.59,1.52-.79,2.12-.2.6-.39,1.16-.55,1.67-.15.5-.26.91-.31,1.22s-.09.57-.09.77c0,.46.37.82,1.1,1.08s1.56.41,2.47.45v1.24h-9.31v-1.24c.3-.02.68-.09,1.13-.2.45-.11.82-.26,1.11-.44.46-.31.82-.64,1.08-.98.26-.34.5-.82.75-1.42,1.24-3.1,2.61-6.58,4.11-10.45,1.5-3.87,2.83-7.31,4.01-10.33h1.39l8.24,21.32c.17.45.37.82.59,1.1.22.28.53.55.92.82.27.16.62.3,1.05.41.43.11.79.17,1.08.18v1.24ZM142.21,65.62l-3.74-9.59-3.69,9.59h7.43Z"/>
      <path class="cls-1" d="M178.54,75.72h-6.66c-1.47-2.31-2.8-4.31-3.99-5.99-1.19-1.68-2.48-3.42-3.87-5.21h-2.53v7.84c0,.41.06.76.19,1.07s.4.54.82.71c.21.08.57.16,1.1.23.52.07.96.11,1.32.12v1.24h-10.45v-1.24c.28-.02.68-.06,1.21-.12.53-.06.9-.13,1.11-.23.35-.15.6-.37.76-.66.16-.29.24-.66.24-1.11v-17.87c0-.41-.06-.77-.17-1.08-.12-.31-.39-.55-.82-.71-.29-.1-.67-.2-1.13-.29-.46-.09-.86-.14-1.18-.17v-1.24h11.41c1.05,0,2.03.11,2.94.32.92.21,1.75.56,2.49,1.04.72.46,1.29,1.07,1.72,1.82s.64,1.65.64,2.71c0,.95-.15,1.79-.44,2.53-.29.73-.72,1.37-1.29,1.9-.52.5-1.15.93-1.88,1.3-.73.37-1.54.68-2.42.93,1.22,1.61,2.23,2.97,3.04,4.08.81,1.1,1.8,2.44,2.97,4.02.51.7.97,1.21,1.38,1.54.41.33.82.6,1.23.81.3.15.68.27,1.13.35.45.08.83.13,1.13.14v1.24ZM169.38,57.3c0-1.5-.43-2.68-1.29-3.56-.86-.88-2.07-1.31-3.64-1.31h-2.96v10.59h2.28c1.6,0,2.94-.51,4.01-1.54,1.07-1.03,1.6-2.42,1.6-4.18Z"/>
      <path class="cls-1" d="M199.6,57.71h-1.2c-.1-.42-.29-.91-.57-1.49-.27-.57-.58-1.12-.92-1.63-.35-.53-.73-1-1.14-1.4s-.81-.63-1.2-.69c-.36-.05-.81-.08-1.36-.1-.55-.02-1.05-.03-1.52-.03h-1.01v19.77c0,.38.08.73.24,1.05s.45.57.85.74c.21.08.65.19,1.31.33.67.14,1.19.21,1.56.23v1.24h-11.67v-1.24c.33-.02.82-.07,1.49-.14s1.13-.16,1.38-.26c.38-.15.66-.37.84-.65.18-.29.27-.67.27-1.14v-19.93h-1.01c-.36,0-.81,0-1.34.03-.53.02-1.05.05-1.53.11-.38.05-.78.28-1.19.69-.41.41-.79.88-1.14,1.4-.35.52-.66,1.08-.92,1.66-.27.59-.45,1.07-.56,1.45h-1.22v-6.71h21.55v6.71Z"/>
      <path class="cls-1" d="M227.64,52.24c-.33.01-.82.1-1.5.28-.67.17-1.16.35-1.45.54-.42.29-.7.85-.84,1.67-.15.83-.22,1.87-.22,3.14v18.1h-1.52l-14.98-20.22v12.75c0,1.43.09,2.53.27,3.29s.46,1.31.83,1.64c.27.25.82.49,1.65.71.84.22,1.39.34,1.65.35v1.24h-10.14v-1.24c.31-.02.84-.14,1.58-.34s1.21-.39,1.39-.55c.41-.33.69-.82.84-1.49s.23-1.81.23-3.42v-12.17c0-.53-.09-1.07-.28-1.6-.19-.53-.44-.95-.75-1.24-.42-.38-.98-.71-1.7-.98-.71-.27-1.29-.42-1.73-.44v-1.24h7.06l13.89,18.84v-11.75c0-1.44-.09-2.55-.28-3.32-.19-.77-.45-1.29-.8-1.54-.33-.22-.86-.43-1.59-.64s-1.3-.33-1.68-.35v-1.24h10.05v1.24Z"/>
      <path class="cls-1" d="M250.42,68.44l-.47,7.28h-20.52v-1.24c.35-.02.81-.07,1.39-.15.58-.08.96-.15,1.13-.24.37-.17.63-.4.78-.68.15-.28.22-.63.22-1.06v-17.77c0-.38-.06-.72-.19-1.02-.13-.3-.4-.54-.8-.72-.31-.15-.73-.28-1.26-.4s-.95-.19-1.26-.21v-1.24h19.12v5.96h-1.31c-.23-.88-.73-1.82-1.51-2.81-.77-.99-1.51-1.54-2.2-1.63-.36-.05-.79-.08-1.29-.1-.5-.02-1.07-.03-1.71-.03h-3.88v9.82h2.79c.89,0,1.55-.08,1.96-.25.41-.17.78-.45,1.09-.85.25-.34.47-.79.65-1.35.18-.56.3-1.09.36-1.59h1.31v9.68h-1.31c-.05-.56-.17-1.15-.37-1.77s-.42-1.07-.64-1.35c-.36-.45-.77-.75-1.23-.89-.46-.14-1.07-.21-1.82-.21h-2.79v7.41c0,.74.05,1.33.16,1.76s.31.75.61.97c.3.22.71.36,1.24.43.52.06,1.27.09,2.23.09h1.52c.63,0,1.16-.02,1.58-.07.44-.05.9-.13,1.37-.25.47-.12.8-.29,1-.5.53-.56,1.09-1.4,1.68-2.53.59-1.13.96-1.96,1.12-2.5h1.25Z"/>
      <path class="cls-1" d="M277.02,75.72h-6.66c-1.47-2.31-2.8-4.31-3.99-5.99-1.19-1.68-2.48-3.42-3.87-5.21h-2.53v7.84c0,.41.06.76.19,1.07s.4.54.82.71c.21.08.58.16,1.1.23.52.07.96.11,1.32.12v1.24h-10.45v-1.24c.28-.02.68-.06,1.21-.12.53-.06.9-.13,1.11-.23.35-.15.6-.37.76-.66.16-.29.24-.66.24-1.11v-17.87c0-.41-.06-.77-.17-1.08s-.39-.55-.82-.71c-.29-.1-.67-.2-1.13-.29-.46-.09-.86-.14-1.18-.17v-1.24h11.41c1.04,0,2.03.11,2.94.32.92.21,1.75.56,2.49,1.04.72.46,1.29,1.07,1.72,1.82s.64,1.65.64,2.71c0,.95-.15,1.79-.44,2.53-.29.73-.72,1.37-1.29,1.9-.52.5-1.15.93-1.88,1.3-.73.37-1.54.68-2.42.93,1.22,1.61,2.23,2.97,3.04,4.08.81,1.1,1.8,2.44,2.97,4.02.51.7.97,1.21,1.38,1.54s.82.6,1.23.81c.3.15.68.27,1.13.35s.83.13,1.13.14v1.24ZM267.86,57.3c0-1.5-.43-2.68-1.29-3.56-.86-.88-2.07-1.31-3.64-1.31h-2.96v10.59h2.28c1.6,0,2.94-.51,4.01-1.54,1.07-1.03,1.6-2.42,1.6-4.18Z"/>
      <path class="cls-1" d="M293.36,64.38c.52.58.91,1.22,1.16,1.91.25.69.38,1.5.38,2.41,0,2.18-.81,3.98-2.42,5.4-1.61,1.42-3.62,2.12-6.01,2.12-1.1,0-2.21-.17-3.31-.51s-2.05-.76-2.86-1.25l-.75,1.27h-1.39l-.24-8.47h1.41c.29,1.05.63,1.99,1.02,2.83.39.84.9,1.63,1.54,2.36.6.68,1.31,1.23,2.12,1.64.81.41,1.75.61,2.81.61.8,0,1.5-.11,2.1-.31s1.08-.51,1.45-.89c.37-.38.65-.83.83-1.35.18-.52.27-1.11.27-1.79,0-.99-.28-1.91-.84-2.76-.56-.86-1.39-1.5-2.49-1.95-.75-.3-1.62-.63-2.59-1s-1.82-.71-2.53-1.03c-1.39-.63-2.48-1.45-3.25-2.46s-1.16-2.34-1.16-3.98c0-.94.19-1.82.58-2.63.38-.81.93-1.54,1.64-2.18.67-.6,1.47-1.08,2.39-1.42.92-.34,1.88-.51,2.87-.51,1.14,0,2.16.17,3.06.52.9.35,1.72.75,2.46,1.22l.71-1.18h1.39l.14,8.2h-1.41c-.26-.94-.54-1.84-.86-2.7s-.73-1.64-1.25-2.33c-.5-.67-1.11-1.21-1.83-1.61s-1.6-.6-2.65-.6c-1.1,0-2.04.35-2.82,1.06-.78.71-1.17,1.57-1.17,2.59s.25,1.95.75,2.66c.5.7,1.23,1.28,2.18,1.73.85.41,1.68.76,2.5,1.05.82.3,1.61.61,2.38.95.7.3,1.37.64,2.01,1.03.64.38,1.21.83,1.68,1.34Z"/>
    </g>
  </g>
</svg>